<?xml version="1.0" standalone="no"?>
<!DOCTYPE svg PUBLIC "-//W3C//DTD SVG 20010904//EN"
 "http://www.w3.org/TR/2001/REC-SVG-20010904/DTD/svg10.dtd">
<svg version="1.0" xmlns="http://www.w3.org/2000/svg"
 width="200.000000pt" height="200.000000pt" viewBox="0 0 200.000000 200.000000"
 preserveAspectRatio="xMidYMid meet">

<g transform="translate(0.000000,200.000000) scale(0.100000,-0.100000)"
fill="#000000" stroke="none">
<path d="M520 1540 c0 -13 -7 -20 -20 -20 -13 0 -20 -7 -20 -20 0 -13 -7 -20
-20 -20 -13 0 -20 -7 -20 -20 0 -13 -7 -20 -20 -20 -13 0 -20 -7 -20 -20 0
-13 -7 -20 -20 -20 -20 0 -20 -7 -20 -440 0 -433 0 -440 20 -440 13 0 20 -7
20 -20 0 -20 7 -20 600 -20 593 0 600 0 600 20 0 13 7 20 20 20 20 0 20 7 20
440 0 433 0 440 -20 440 -13 0 -20 7 -20 20 0 20 -7 20 -300 20 -293 0 -300 0
-300 20 0 13 -7 20 -20 20 -13 0 -20 7 -20 20 0 13 -7 20 -20 20 -13 0 -20 7
-20 20 0 19 -7 20 -200 20 -193 0 -200 -1 -200 -20z m400 -40 c0 -13 7 -20 20
-20 13 0 20 -7 20 -20 0 -13 7 -20 20 -20 13 0 20 -7 20 -20 0 -20 7 -20 300
-20 293 0 300 0 300 -20 0 -20 -7 -20 -600 -20 -593 0 -600 0 -600 20 0 13 7
20 20 20 13 0 20 7 20 20 0 13 7 20 20 20 13 0 20 7 20 20 0 13 7 20 20 20 13
0 20 7 20 20 0 19 7 20 200 20 193 0 200 -1 200 -20z m680 -580 l0 -400 -600
0 -600 0 0 400 0 400 600 0 600 0 0 -400z"/>
</g>
</svg>
